<?xml version="1.0" standalone="no"?>
<!DOCTYPE svg PUBLIC "-//W3C//DTD SVG 20010904//EN"
 "http://www.w3.org/TR/2001/REC-SVG-20010904/DTD/svg10.dtd">
<svg version="1.0" xmlns="http://www.w3.org/2000/svg"
 width="300.000000pt" height="109.000000pt" viewBox="0 0 300.000000 109.000000"
 preserveAspectRatio="xMidYMid meet">
<metadata>
Created by potrace 1.10, written by Peter Selinger 2001-2011
</metadata>
<g transform="translate(0.000000,109.000000) scale(0.100000,-0.100000)"
fill="#000000" stroke="none">
<path d="M2839 1057 c-45 -34 -46 -92 -2 -127 36 -28 70 -25 104 9 36 36 37
73 4 106 -27 27 -79 33 -106 12z m72 -27 c37 -20 18 -80 -26 -80 -43 0 -58 39
-28 72 19 21 27 22 54 8z"/>
<path d="M125 955 c-16 -8 -43 -25 -60 -39 -28 -24 -30 -30 -30 -94 0 -49 6
-83 22 -118 12 -27 42 -114 67 -194 105 -340 119 -381 137 -404 11 -13 42 -32
71 -42 43 -14 59 -15 104 -5 67 15 106 57 128 138 36 133 41 135 67 34 23 -92
41 -125 83 -150 88 -55 200 -27 243 59 13 25 55 146 94 270 101 321 101 321
129 365 47 74 161 105 272 75 53 -15 98 -70 98 -121 0 -87 -53 -130 -169 -137
-86 -5 -101 -13 -101 -53 0 -37 13 -43 91 -44 74 -1 147 -31 173 -70 9 -13 18
-41 22 -63 20 -126 -113 -223 -263 -193 -62 12 -98 39 -139 104 -27 42 -50 46
-82 17 -27 -25 -26 -22 -3 -68 31 -61 101 -119 167 -138 73 -21 213 -16 264
10 51 26 108 85 121 123 13 41 34 43 47 4 13 -38 74 -95 131 -123 32 -16 69
-24 123 -26 66 -4 84 -1 135 22 69 32 128 87 144 133 14 42 34 42 48 0 16 -47
88 -114 149 -137 58 -22 163 -27 221 -9 142 42 231 207 231 424 0 215 -65 356
-194 422 -68 35 -196 38 -267 6 -96 -43 -168 -145 -191 -271 -11 -60 -6 -98
11 -88 5 3 12 30 16 59 9 71 51 164 93 209 55 58 119 81 217 76 70 -3 89 -7
131 -33 58 -36 103 -98 130 -181 27 -84 27 -305 0 -384 -34 -99 -74 -150 -151
-193 -32 -18 -56 -22 -125 -22 -110 0 -165 26 -231 111 -25 33 -53 60 -62 62
-9 2 -32 -18 -58 -50 -74 -95 -168 -137 -271 -124 -73 10 -125 40 -190 109
-54 59 -58 61 -82 47 -14 -7 -28 -21 -31 -30 -3 -9 -23 -35 -45 -58 -49 -51
-98 -66 -206 -66 -68 0 -90 5 -135 27 -56 28 -109 86 -109 119 0 27 15 19 42
-22 13 -19 43 -48 67 -65 40 -28 48 -30 134 -30 81 0 98 4 137 26 26 15 59 47
78 75 31 45 34 54 30 110 -7 109 -77 170 -209 181 -90 8 -86 26 7 34 119 9
184 68 184 165 0 54 -25 98 -74 132 -31 20 -122 42 -161 38 -80 -9 -107 -20
-154 -62 -58 -52 -61 -60 -181 -434 -87 -274 -97 -293 -165 -306 -45 -8 -98 2
-125 24 -11 9 -32 51 -46 92 -26 76 -48 110 -69 110 -22 0 -53 -45 -70 -102
-9 -31 -25 -68 -36 -82 -38 -48 -136 -58 -194 -20 -24 16 -48 81 -161 449 -20
66 -45 136 -55 157 -29 57 -35 113 -15 143 26 40 75 65 128 65 64 0 100 -32
127 -112 21 -63 45 -98 66 -98 22 0 53 45 71 103 12 38 29 68 48 84 27 22 37
25 97 21 84 -5 101 -19 130 -107 20 -63 62 -121 77 -106 4 3 -1 11 -11 16 -9
6 -17 20 -17 32 0 31 -27 116 -45 144 -22 34 -87 63 -140 63 -101 0 -155 -49
-180 -165 -9 -41 -22 -75 -29 -75 -6 0 -19 34 -28 75 -9 41 -25 86 -34 100
-37 57 -142 82 -209 50z"/>
<path d="M935 954 c-16 -8 -38 -22 -47 -31 -21 -18 -58 -126 -58 -166 0 -46
23 -18 44 54 27 90 50 112 122 117 53 3 64 1 104 -27 25 -17 50 -31 55 -31 6
0 37 11 70 25 83 34 198 35 270 1 56 -26 102 -73 111 -114 3 -15 9 -36 14 -47
6 -17 9 -14 15 18 13 69 -36 136 -130 179 -88 39 -291 25 -320 -22 -10 -17
-39 -11 -53 11 -29 45 -138 64 -197 33z"/>
<path d="M1885 950 c-104 -26 -192 -110 -208 -197 -8 -40 9 -44 24 -6 21 56
79 121 131 147 41 21 67 26 123 26 75 0 135 -14 135 -32 0 -7 -21 -8 -62 -3
-143 17 -212 -10 -273 -106 -20 -31 -55 -127 -55 -151 0 -16 17 -7 27 15 69
146 75 155 113 182 53 37 129 44 202 20 52 -17 53 -17 70 5 39 48 14 80 -80
99 -59 12 -103 13 -147 1z"/>
<path d="M130 880 c-47 -44 -46 -50 85 -460 18 -58 43 -137 55 -177 28 -91 64
-128 121 -127 73 2 88 23 149 202 30 88 58 164 62 167 3 4 29 -65 57 -153 43
-134 56 -165 82 -186 29 -25 39 -28 74 -28 35 0 44 3 69 28 26 26 32 44 197
561 38 119 37 134 -6 172 -48 41 -85 41 -129 -1 -28 -28 -42 -58 -82 -185 -26
-84 -51 -153 -54 -153 -4 0 -28 68 -54 152 -39 124 -54 158 -81 185 -38 38
-89 44 -131 17 -32 -22 -46 -49 -85 -170 -37 -119 -61 -184 -65 -184 -2 0 -26
72 -54 160 -42 132 -56 163 -81 185 -43 35 -88 33 -129 -5z m936 -32 c17 -18
16 -24 -23 -146 -23 -70 -70 -215 -104 -322 -34 -107 -68 -203 -77 -212 -9
-11 -29 -18 -52 -18 -23 0 -43 7 -52 18 -18 21 -138 392 -138 427 0 37 -26 31
-34 -7 -15 -77 -129 -414 -144 -425 -9 -7 -33 -13 -54 -13 -45 0 -56 15 -86
110 -11 36 -55 176 -97 313 -68 214 -77 251 -67 273 11 22 17 25 59 22 39 -2
50 -7 60 -28 17 -35 123 -387 123 -411 0 -38 28 -20 35 24 3 23 34 125 68 227
l62 185 51 3 c35 2 54 -2 63 -12 13 -16 119 -338 131 -399 11 -53 27 -68 35
-31 12 58 119 409 129 423 25 33 82 33 112 -1z"/>
<path d="M2430 875 c-111 -50 -173 -178 -173 -360 0 -176 57 -302 163 -358 49
-26 62 -28 123 -24 55 4 77 10 109 33 92 65 135 156 145 308 11 170 -40 313
-134 377 -41 28 -57 33 -122 36 -54 2 -86 -1 -111 -12z m214 -45 c83 -57 119
-150 120 -310 1 -134 -17 -206 -67 -271 -42 -56 -83 -79 -151 -86 -106 -11
-203 63 -239 181 -7 23 -12 97 -12 171 0 105 4 140 20 183 42 114 114 165 226
160 51 -3 75 -9 103 -28z"/>
<path d="M1889 680 c-55 -9 -84 -23 -121 -58 -44 -41 -33 -44 34 -9 55 28 71
32 142 32 86 0 130 -16 194 -70 44 -37 67 -33 34 6 -67 77 -179 116 -283 99z"/>
<path d="M1565 593 c-19 -20 -35 -43 -35 -49 0 -17 58 -74 76 -74 21 0 17 9
-21 42 l-34 31 29 27 c17 16 30 35 30 44 0 23 -6 20 -45 -21z"/>
<path d="M1862 607 c-46 -14 -121 -84 -143 -132 -24 -53 -24 -147 0 -200 22
-49 79 -101 140 -128 119 -52 269 21 316 154 66 185 -121 368 -313 306z m179
-45 c91 -48 135 -145 109 -242 -16 -61 -89 -134 -150 -150 -127 -34 -257 56
-268 186 -14 172 156 286 309 206z"/>
<path d="M1643 593 c-7 -12 -13 -41 -13 -64 0 -39 1 -42 16 -28 11 11 14 31
12 65 -3 45 -4 47 -15 27z"/>
</g>
</svg>
